<svg width="27" height="15" viewBox="0 0 27 15" fill="none" xmlns="http://www.w3.org/2000/svg">
<path d="M0.292893 6.65685C-0.0976311 7.04737 -0.0976311 7.68054 0.292893 8.07106L6.65685 14.435C7.04738 14.8255 7.68054 14.8255 8.07107 14.435C8.46159 14.0445 8.46159 13.4113 8.07107 13.0208L2.41421 7.36395L8.07107 1.7071C8.46159 1.31657 8.46159 0.683409 8.07107 0.292885C7.68054 -0.0976396 7.04738 -0.0976396 6.65685 0.292885L0.292893 6.65685ZM26 8.36395C26.5523 8.36395 27 7.91624 27 7.36395C27 6.81167 26.5523 6.36395 26 6.36395V8.36395ZM1 8.36395H26V6.36395H1V8.36395Z" fill="white"/>
</svg>
